<svg width="124" height="111" viewBox="0 0 124 111" fill="none" xmlns="http://www.w3.org/2000/svg">
<path d="M106.714 11.2147L100.752 17.1201C77.7038 -5.70669 40.3336 -5.70669 17.2858 17.1201C-5.76195 39.9468 -5.76195 76.9586 17.2858 99.7853L32.1872 85.0269C17.3671 70.349 17.3671 46.5564 32.1872 31.8885C47.0073 17.2106 71.0302 17.2106 85.8401 31.8885L91.8027 25.9832C106.623 40.6611 106.623 64.4537 91.8027 79.1215C76.9826 93.7995 52.9597 93.7995 38.1497 79.1215L23.2484 93.8799C46.2962 116.707 83.6664 116.707 106.714 93.8799C129.762 71.0532 129.762 34.0415 106.714 11.2147Z" fill="#CACACA"/>
<path d="M106.714 11.2147L100.752 17.1201C77.7038 -5.70669 40.3336 -5.70669 17.2858 17.1201C-5.76195 39.9468 -5.76195 76.9586 17.2858 99.7853L32.1872 85.0269C17.3671 70.349 17.3671 46.5564 32.1872 31.8885C47.0073 17.2106 71.0302 17.2106 85.8401 31.8885L91.8027 25.9832C106.623 40.6611 106.623 64.4537 91.8027 79.1215C76.9826 93.7995 52.9597 93.7995 38.1497 79.1215L23.2484 93.8799C46.2962 116.707 83.6664 116.707 106.714 93.8799C129.762 71.0532 129.762 34.0415 106.714 11.2147Z" fill="#20B200"/>
<path opacity="0.75" d="M100.965 40.6007C105.384 53.6891 102.336 68.699 91.8131 79.1214C76.993 93.7994 52.9701 93.7994 38.1602 79.1214L32.1976 85.0268C17.3776 70.3489 17.3776 46.5563 32.1976 31.8885C47.0177 17.2105 71.0406 17.2105 85.8506 31.8885L100.752 17.1301C100.732 17.1099 100.721 17.0999 100.701 17.0797C79.2988 -4.06695 44.6306 -4.04681 23.2487 17.1301C1.84646 38.327 1.84646 72.6929 23.2487 93.8899L23.3706 93.7692C44.5494 111.787 74.7177 112.522 92.6664 94.745C106.775 80.7713 109.335 59.3228 100.965 40.6007Z" fill="url(#paint0_linear_2606_975)"/>
<path opacity="0.75" d="M100.762 17.1206L100.64 17.2413C79.4611 -0.776632 49.2928 -1.51103 31.3441 16.2655C17.2453 30.2291 14.6855 51.6776 23.0555 70.3998C18.6369 57.3114 21.6842 42.3015 32.2075 31.879C47.0276 17.2011 71.0505 17.2011 85.8604 31.879L91.823 25.9736C106.643 40.6516 106.643 64.4441 91.823 79.112C77.0029 93.7899 52.98 93.7899 38.1701 79.112L23.2688 93.8704C23.2891 93.8906 23.2992 93.9006 23.3196 93.9207C44.7218 115.067 79.39 115.047 100.772 93.8704C122.154 72.6835 122.154 38.3176 100.762 17.1206Z" fill="url(#paint1_linear_2606_975)"/>
<path opacity="0.75" d="M100.71 17.0692C79.308 -4.0775 44.6398 -4.05739 23.2579 17.1195C1.85561 38.3165 1.85561 72.6824 23.2579 93.8793L32.1966 85.0263C27.6561 80.5294 24.5174 75.1773 22.7601 69.4932C22.8516 69.7951 22.943 70.0969 23.0446 70.3987C14.6645 51.6765 17.2344 30.228 31.3332 16.2644C49.2717 -1.50209 79.4502 -0.777745 100.629 17.2402L100.751 17.1195C100.741 17.0994 100.72 17.0893 100.71 17.0692Z" fill="url(#paint2_linear_2606_975)"/>
<defs>
<linearGradient id="paint0_linear_2606_975" x1="114.834" y1="-24.7699" x2="8.04832" y2="129.417" gradientUnits="userSpaceOnUse">
<stop offset="0.5574" stop-color="#D2D600" stop-opacity="0"/>
<stop offset="0.7695" stop-color="#D2D600"/>
</linearGradient>
<linearGradient id="paint1_linear_2606_975" x1="42.6652" y1="80.1818" x2="121.986" y2="-6.62804" gradientUnits="userSpaceOnUse">
<stop offset="0.1696" stop-color="#D2D600" stop-opacity="0"/>
<stop offset="0.7918" stop-color="#D2D600"/>
</linearGradient>
<linearGradient id="paint2_linear_2606_975" x1="-10.5493" y1="6.95429" x2="31.2397" y2="35.0833" gradientUnits="userSpaceOnUse">
<stop stop-color="#D2D600"/>
<stop offset="1" stop-color="#D2D600" stop-opacity="0"/>
</linearGradient>
</defs>
</svg>
