<svg width="24" height="25" viewBox="0 0 24 25" fill="none" xmlns="http://www.w3.org/2000/svg">
<path fill-rule="evenodd" clip-rule="evenodd" d="M1.5 12.5C1.5 6.70101 6.20101 2 12 2C14.7848 2 17.4555 3.10625 19.4246 5.07538C21.3938 7.04451 22.5 9.71523 22.5 12.5C22.5 18.299 17.799 23 12 23C6.20101 23 1.5 18.299 1.5 12.5ZM3 12.5C3 17.4706 7.02944 21.5 12 21.5C16.9706 21.5 21 17.4706 21 12.5C21 7.52944 16.9706 3.5 12 3.5C7.02944 3.5 3 7.52944 3 12.5ZM12.75 6.5V14.75H11.25V6.5H12.75ZM10.875 18.125C10.875 17.5037 11.3787 17 12 17C12.6213 17 13.125 17.5037 13.125 18.125C13.125 18.7463 12.6213 19.25 12 19.25C11.3787 19.25 10.875 18.7463 10.875 18.125Z" fill="#DB2929"/>
</svg>
